<?xml version="1.0" encoding="UTF-8"?>
<svg id="Layer_1" data-name="Layer 1" xmlns="http://www.w3.org/2000/svg" viewBox="0 0 698 698">
  <defs>
    <style>
      .cls-1 {
        fill: #fff;
      }
    </style>
  </defs>
  <path d="M719,0v698H0V0h719ZM325,515c46.35-2.41,94.91,7.65,138.36-12.14,54.7-24.92,85.18-85.81,74.18-144.89-5.72-30.69-23.54-58.75-47.35-78.46,64.05-78.95,11.14-198.71-89.64-205.55l-285.54.05,31.01,22.48c21.84,19.66,36.17,47.54,39.04,76.96l-.18,363.92c-2.18,23.78-19.3,53.48-38.54,67.46-9.56,6.95-21.13,10.79-30.33,18.16l405.34,1.05,35.65-123.04c-11.65,10.8-19.83,22.29-33.68,30.81-8.54,5.25-31.25,15.19-40.81,15.19h-221.5V150h139.5c19.76,0,40.06,26.86,41.49,45.52,1.93,25.24-18.74,55.48-45.49,55.48h-71.5v74.5l1.5,1.5h90c23.2,0,45.62,29.87,47.37,51.63,2.11,26.35-21.54,60.37-49.37,60.37h-89.5v76Z"/>
  <path class="cls-1" d="M325,515v-76h89.5c27.83,0,51.48-34.02,49.37-60.37-1.75-21.76-24.17-51.63-47.37-51.63h-90l-1.5-1.5v-74.5h71.5c26.74,0,47.42-30.24,45.49-55.48-1.43-18.65-21.73-45.52-41.49-45.52h-139.5v397h221.5c9.55,0,32.27-9.94,40.81-15.19,13.85-8.51,22.03-20.01,33.68-30.81l-35.65,123.04-405.34-1.05c9.2-7.37,20.77-11.21,30.33-18.16,19.24-13.98,36.36-43.68,38.54-67.46l.18-363.92c-2.87-29.42-17.2-57.31-39.04-76.96l-31.01-22.48,285.54-.05c100.78,6.84,153.69,126.6,89.64,205.55,23.82,19.71,41.64,47.76,47.35,78.46,11,59.08-19.48,119.98-74.18,144.89-43.44,19.79-92.01,9.73-138.36,12.14Z"/>
</svg>